<!--?xml version="1.0" encoding="utf-8"?-->
<!-- Generator: Adobe Illustrator 18.1.1, SVG Export Plug-In . SVG Version: 6.00 Build 0)  -->

<svg version="1.1" id="_x32_" xmlns="http://www.w3.org/2000/svg" xmlns:xlink="http://www.w3.org/1999/xlink" x="0px" y="0px" viewBox="0 0 512 512" style="width: 256px; height: 256px; opacity: 1;" xml:space="preserve" fill="#3a3a3a">
<style type="text/css">
	.st0{fill:#4B4B4B;}
</style>
<g>
	<path class="st0" d="M490.72,127.138c3.024-3.318,3.813-8.13,1.992-12.236c-1.813-4.106-5.902-6.764-10.382-6.764H348.212
		l9.682-21.471c6.301-13.968,18.208-24.634,32.793-29.375l91.016-29.512L472.696,0L381.68,29.52
		c-22.419,7.268-40.719,23.658-50.41,45.147l-15.094,33.471h-286.5c-4.492,0-8.577,2.658-10.39,6.764
		c-1.817,4.105-1.028,8.918,1.992,12.236l196.602,215.78v90.35l-78.561,58.252c-3.944,2.919-5.565,8.033-4.024,12.684
		c1.544,4.658,5.882,7.796,10.785,7.796h219.841c4.903,0,9.24-3.139,10.785-7.796c1.537-4.651-0.081-9.765-4.016-12.684
		l-78.556-58.252v-90.35L490.72,127.138z M276.009,448.106l55.528,41.179H180.472l55.521-41.179
		c2.906-2.138,4.597-5.512,4.597-9.114V338.52c0-2.813-1.065-5.569-2.964-7.65L55.383,130.854h250.545l-28.468,63.13H136.907
		l119.094,131.195l119.086-131.195h-65.59l28.476-63.13h118.642L274.374,330.87c-1.89,2.081-2.955,4.837-2.955,7.65v100.472
		C271.419,442.594,273.111,445.968,276.009,448.106z" style="fill: rgb(75, 75, 75);"></path>
</g>
</svg>
