<!--?xml version="1.0" encoding="utf-8"?-->
<!-- Generator: Adobe Illustrator 15.1.0, SVG Export Plug-In . SVG Version: 6.00 Build 0)  -->

<svg version="1.1" id="_x32_" xmlns="http://www.w3.org/2000/svg" xmlns:xlink="http://www.w3.org/1999/xlink" x="0px" y="0px" width="512px" height="512px" viewBox="0 0 512 512" fill="#3a3a3a" style="width: 256px; height: 256px; opacity: 1;" xml:space="preserve">
<style type="text/css">

	.st0{fill:#4B4B4B;}

</style>
<g>
	<path class="st0" d="M207.103,23.875v109.219c0,7-5.656,12.641-12.625,12.641h-3.375c-6.969,0-12.641-5.641-12.641-12.641V23.375
		c0-18-12.109-23.375-23.719-23.375s-23.719,5.375-23.719,23.375v109.719c0,7-5.672,12.641-12.641,12.641h-3.375
		c-6.969,0-12.625-5.641-12.625-12.641V23.875c0-32.219-45.938-31.125-45.938,0.359c0,37.703,0,104.297,0,104.297
		c-0.219,57.906,13.625,72.953,36.469,91c18.422,14.531,34.156,22.859,34.156,58.953v232.188h55.344V278.484
		c0-36.094,15.734-44.422,34.156-58.953c22.859-18.047,36.688-33.094,36.469-91c0,0,0-66.594,0-104.297
		C253.04-7.25,207.103-8.344,207.103,23.875z" style="fill: rgb(75, 75, 75);"></path>
	<path class="st0" d="M385.228,34.75c-11.75,32.953-45.578,110.156-47.719,178.344c-3.313,105.844,61.547,90.188,62.703,159.531
		v138.688h55.078l0.266,0.688c0,0,0-0.281,0-0.688c0-9.266,0-119.625,0-232.203c0-111.359,0-224.797,0-244.359
		C455.556-5.438,403.524-16.531,385.228,34.75z" style="fill: rgb(75, 75, 75);"></path>
</g>
</svg>
