<svg height="512pt" viewBox="0 0 512 512" width="512pt" fill="#3a3a3a" xmlns="http://www.w3.org/2000/svg"><path d="m199.019531 158.53125c30.003907 0 54.414063-24.40625 54.414063-54.410156v-42.429688c0-34.015625-27.675782-61.691406-61.691406-61.691406h-47.140626v104.121094c0 30.003906 24.40625 54.410156 54.417969 54.410156zm0 0"/><path d="m391.914062 242.132812-41.257812-17.945312c-35.398438-15.398438-63.277344-42.484375-79.941406-75.578125-14.914063 23.945313-41.46875 39.921875-71.695313 39.921875-46.546875 0-84.417969-37.867188-84.417969-84.410156v-97.085938c-20.332031 10.515625-34.269531 31.730469-34.269531 56.164063 0 18.308593-14.894531 33.199219-33.199219 33.199219h-32.132812c-8.285156 0-15 6.71875-15 15v24.101562c0 39.277344 31.953125 71.234375 71.234375 71.234375h24.097656c9.449219 0 17.132813 7.683594 17.132813 17.132813v34.886718c0 31.175782 11.363281 60.605469 32.132812 83.558594v86.878906l-6.296875 12.589844c-6.390625 12.789062-9.769531 27.105469-9.769531 41.394531v13.824219c0 8.285156 6.714844 15 15 15h49.269531v-15.015625c0-43.84375 35.472657-79.25 79.25-79.25h1.082031v-1.066406c0-52.566407 42.769532-95.332031 95.335938-95.332031 8.28125 0 15 6.714843 15 15 0 8.28125-6.71875 15-15 15-36.027344 0-65.335938 29.304687-65.335938 65.332031v16.066406c0 8.285156-6.714843 15-15 15h-16.082031c-27.25 0-49.25 22.046875-49.25 49.25v15.015625h274.199219c8.285156 0 15-6.714844 15-15v-71.683594c0-79.546875-47.136719-151.453125-120.085938-183.183594zm0 0"/></svg>