<!--?xml version="1.0" encoding="utf-8"?-->
<!-- Generator: Adobe Illustrator 18.1.1, SVG Export Plug-In . SVG Version: 6.00 Build 0)  -->

<svg version="1.1" id="_x32_" xmlns="http://www.w3.org/2000/svg" xmlns:xlink="http://www.w3.org/1999/xlink" x="0px" y="0px" viewBox="0 0 512 512" fill="#3a3a3a" style="width: 256px; height: 256px; opacity: 1;" xml:space="preserve">
<style type="text/css">
	.st0{fill:#4B4B4B;}
</style>
<g>
	<path class="st0" d="M430.126,237.978H81.874c-15.456,0-27.984,12.528-27.984,27.984c0,15.456,12.528,27.984,27.984,27.984h348.252
		c15.456,0,27.984-12.528,27.984-27.984C458.111,250.507,445.582,237.978,430.126,237.978z" style="fill: rgb(75, 75, 75);"></path>
	<path class="st0" d="M273.934,50.479c6.398-5.229,10.567-13.075,10.567-21.978C284.501,12.76,271.738,0,256,0
		c-15.738,0-28.5,12.76-28.5,28.501c0,8.903,4.169,16.75,10.567,21.978c-86.018,8.964-153.083,81.689-153.083,170.075h342.033
		C427.017,132.168,359.952,59.443,273.934,50.479z M184.083,192.57h-55.568c0-55.793,42.001-101.705,96.094-108.021L184.083,192.57z
		" style="fill: rgb(75, 75, 75);"></path>
	<path class="st0" d="M365.369,380.852l-8.575-6.061c-8.56-6.036-14.126-15.474-15.292-25.896l-3.924-35.102
		c0.122-3.996,0.161-9.596-2.644-12.449c-2.806-2.854-6.657-4.446-10.662-4.398v0.049c-4.782,0.054-10.789-0.407-15.918,6.407
		l-14.654,26.278c-9.711,16.184-22.188,16.16-35.218,11.666l-102.16-44.844c-5.6-1.925-11.8,0.037-15.277,4.828l-0.139,0.195
		c-4.206,5.794-3.128,13.87,2.45,18.365l117.614,97.903l66.205,33.268l-10.944,20.12L389.27,512l58.756-107.997l-73.043-40.817
		L365.369,380.852z M422.823,411.29L381.9,486.511l-40.465-22.616l40.92-75.221L422.823,411.29z" style="fill: rgb(75, 75, 75);"></path>
	<circle class="st0" cx="395.522" cy="421.433" r="10.105" style="fill: rgb(75, 75, 75);"></circle>
</g>
</svg>
