<!--?xml version="1.0" encoding="utf-8"?-->
<!-- Generator: Adobe Illustrator 18.1.1, SVG Export Plug-In . SVG Version: 6.00 Build 0)  -->

<svg version="1.1" id="_x32_" xmlns="http://www.w3.org/2000/svg" xmlns:xlink="http://www.w3.org/1999/xlink" x="0px" y="0px" viewBox="0 0 512 512" fill="#3a3a3a" style="width: 256px; height: 256px; opacity: 1;" xml:space="preserve">
<style type="text/css">
	.st0{fill:#4B4B4B;}
</style>
<g>
	<path class="st0" d="M255.996,356.726c10.498-0.017,19.763-4.182,26.665-11.042c6.86-6.91,11.025-16.167,11.042-26.664
		c-0.017-10.498-4.182-19.763-11.042-26.665c-6.902-6.86-16.167-11.025-26.665-11.042c-10.498,0.017-19.763,4.182-26.665,11.042
		c-6.86,6.902-11.033,16.167-11.042,26.665c0.009,10.497,4.182,19.754,11.042,26.664
		C236.233,352.543,245.498,356.709,255.996,356.726z" style="fill: rgb(75, 75, 75);"></path>
	<path class="st0" d="M416.556,240.605c-10.038-3.069-20.162-5.891-30.32-8.381c-22.169-5.424-37.587-24.932-37.477-47.448
		c0.068-6.273,0.084-12.444,0.076-18.607l-11.025-2.898c-17.416-4.029-51.205-10.718-78.15-10.718h-7.31
		c-27.031,0-60.861,6.706-78.253,10.736l-0.017,0.043l-10.923,2.847c-0.008,6.18,0.017,12.325,0.085,18.462
		c0.094,22.661-15.334,42.178-37.52,47.6c-10.124,2.482-20.23,5.296-30.269,8.356l-9.997,29.088l-44.88,95.746v52.633
		c0,28.62,23.196,51.817,51.817,51.817h163.611h163.612c28.62,0,51.817-23.197,51.817-51.817V365.43l-44.88-95.746L416.556,240.605z
		 M166.064,319.019c-0.017-24.753,10.106-47.397,26.342-63.59c16.193-16.235,38.837-26.359,63.59-26.342
		c24.752-0.016,47.397,10.107,63.59,26.342c16.235,16.193,26.35,38.837,26.342,63.59c0.008,24.752-10.108,47.397-26.342,63.589
		c-16.193,16.236-38.838,26.36-63.59,26.342c-24.752,0.017-47.397-10.106-63.59-26.342
		C176.171,366.416,166.047,343.771,166.064,319.019z" style="fill: rgb(75, 75, 75);"></path>
	<path class="st0" d="M474.68,99.477c-37.944-24.523-131.54-58.702-218.692-57.316c-87.161-1.386-180.73,32.785-218.667,57.316
		c-39.16,23.988-47.5,55.064-25.033,79.34c6.86,9.682,13.592,19.423,20.188,29.241c5.806,8.543,16.975,11.858,26.92,8.288
		c19.772-7.14,39.841-13.201,60.122-18.173c10.286-2.516,17.655-11.578,17.612-21.973c-0.076-7.506-0.102-15.028-0.076-22.552
		c0.008-9.528,7.098-18.215,17.459-20.91c-0.263-0.442,58.813-15.862,101.475-14.968c42.662-0.901,101.738,14.526,101.476,14.96
		c10.37,2.704,17.476,11.39,17.476,20.919c0.025,7.523,0.008,15.038-0.068,22.552c-0.052,10.396,7.31,19.448,17.594,21.964
		c20.282,4.981,40.342,11.033,60.114,18.173c9.962,3.587,21.122,0.255,26.928-8.288c6.605-9.809,13.346-19.558,20.205-29.232
		C522.188,154.541,513.823,123.472,474.68,99.477z" style="fill: rgb(75, 75, 75);"></path>
</g>
</svg>
