<?xml version="1.0" encoding="iso-8859-1"?>
<!-- Generator: Adobe Illustrator 16.0.0, SVG Export Plug-In . SVG Version: 6.00 Build 0)  -->
<!DOCTYPE svg PUBLIC "-//W3C//DTD SVG 1.1//EN" "http://www.w3.org/Graphics/SVG/1.1/DTD/svg11.dtd">
<svg version="1.1" id="Capa_1" xmlns="http://www.w3.org/2000/svg" xmlns:xlink="http://www.w3.org/1999/xlink" x="0px" y="0px"
	 width="498.762px" height="498.762px" fill="#3a3a3a" viewBox="0 0 498.762 498.762" style="enable-background:new 0 0 498.762 498.762;"
	 xml:space="preserve">
<g>
	<g>
		<rect y="177.778" width="53.782" height="143.202"/>
		<polygon points="270.966,177.778 79.26,177.778 79.26,320.98 127.767,320.98 		"/>
		<polygon points="471.24,177.778 392.136,177.778 248.934,320.98 471.24,320.98 		"/>
		<path d="M91.84,113.671c1.279,0.107,2.332,0.333,3.503,0.465c0.649,0.095,0.976,0.098,1.888,0.251l2.546,0.404l2.552,0.404
			l2.28,0.324l6.292,0.802c8.541,0.698,17.516,0.306,26.328-1.64c8.804-1.913,17.362-5.505,24.618-10.364
			c7.286-4.835,13.207-10.835,17.589-16.995c4.428-6.16,7.292-12.513,9.245-18.357c3.815-11.791,3.819-21.745,3.1-28.52
			c-0.731-6.802-2.261-10.52-2.261-10.52s-2.476,3.148-6.548,7.968c-4.085,4.792-9.89,11.294-16.867,17.237
			c-3.448,2.99-7.289,5.731-11.221,8.014c-3.947,2.286-8.017,4.058-12.173,5.294c-8.265,2.457-17.252,3.054-27.779,2.167
			l-3.987-0.45l-5.425-0.569l-2.567-0.251c-0.79-0.089-2.179-0.113-3.238-0.162c-2.243-0.049-4.59-0.232-6.71-0.113
			c-8.418,0.141-17.164,1.558-25.471,4.553c-8.302,2.99-16.062,7.794-21.974,13.663c-5.992,5.826-9.951,12.616-12.286,18.874
			c-2.323,6.316-3.164,12.151-3.269,17.167c-0.079,5.031,0.526,9.256,1.319,12.644c0.771,3.384,1.738,5.93,2.481,7.628
			c0.747,1.698,1.276,2.546,1.276,2.546s1.916-3.546,5.355-8.73c3.424-5.129,8.632-11.996,15.205-16.846
			c3.207-2.484,6.803-4.25,10.419-5.419c3.642-1.172,7.399-1.806,11.644-2.038C81.959,112.888,86.674,113.084,91.84,113.671z"/>
		<polygon points="482.534,26.792 466.308,10.564 466.308,10.564 299.094,177.778 155.892,320.98 21.138,455.736 37.366,471.967 
			53.593,488.197 53.593,488.193 220.806,320.98 364.008,177.778 498.762,43.022 		"/>
	</g>
</g>
<g>
</g>
<g>
</g>
<g>
</g>
<g>
</g>
<g>
</g>
<g>
</g>
<g>
</g>
<g>
</g>
<g>
</g>
<g>
</g>
<g>
</g>
<g>
</g>
<g>
</g>
<g>
</g>
<g>
</g>
</svg>
